<svg width="162" height="45" viewBox="0 0 162 45" fill="none" xmlns="http://www.w3.org/2000/svg">
<g id="svgexport-15 1" clip-path="url(#clip0_1_119)">
<g id="Group">
<path id="Vector" d="M33.9697 9.2024C31.3576 7.99209 28.5835 7.11 25.6878 6.61768C25.3233 7.25361 24.9183 8.11517 24.6348 8.79213C21.555 8.34082 18.4974 8.34082 15.46 8.79213C15.1765 8.11517 14.7513 7.25361 14.407 6.61768C11.4912 7.11 8.7171 7.99209 6.12321 9.2024C0.878721 17.0386 -0.538715 24.6902 0.170001 32.2392C3.65283 34.8034 7.0142 36.3625 10.3168 37.3883C11.1268 36.2805 11.8557 35.0906 12.4835 33.8394C11.2888 33.388 10.1548 32.8341 9.06138 32.1777C9.34487 31.9727 9.62837 31.747 9.8916 31.5213C16.4928 34.5779 23.6427 34.5779 30.1628 31.5213C30.4463 31.747 30.7096 31.9727 30.9931 32.1777C29.8996 32.8341 28.7657 33.388 27.571 33.8394C28.1987 35.0906 28.9277 36.2805 29.7376 37.3883C33.0382 36.3625 36.4198 34.8034 39.8844 32.2392C40.755 23.5005 38.5054 15.9104 33.9697 9.2024ZM13.3947 27.5826C11.4102 27.5826 9.79031 25.757 9.79031 23.521C9.79031 21.285 11.3697 19.4592 13.3947 19.4592C15.3993 19.4592 17.0394 21.285 16.9989 23.521C16.9989 25.757 15.3993 27.5826 13.3947 27.5826ZM26.7003 27.5826C24.7158 27.5826 23.0939 25.757 23.0939 23.521C23.0939 21.285 24.6753 19.4592 26.7003 19.4592C28.705 19.4592 30.3451 21.285 30.3046 23.521C30.3046 25.757 28.7252 27.5826 26.7003 27.5826Z" fill="white"/>
<path id="Vector_2" d="M53.9169 13.0581H62.5248C64.5902 13.0581 66.3518 13.3863 67.7896 14.0427C69.2272 14.6992 70.3004 15.6019 71.0092 16.7711C71.7178 17.9404 72.0823 19.2737 72.0823 20.7918C72.0823 22.2687 71.7179 23.6022 70.9687 24.8124C70.2194 26.0023 69.0856 26.9663 67.5668 27.6638C66.0482 28.3613 64.1649 28.7101 61.9173 28.7101H53.9169V13.0581ZM61.8161 24.7304C63.2132 24.7304 64.2864 24.3816 65.0357 23.6637C65.7849 22.9662 66.1697 21.9815 66.1697 20.7713C66.1697 19.643 65.8254 18.7403 65.1572 18.0635C64.4889 17.3865 63.4766 17.0378 62.1198 17.0378H59.4267V24.7304H61.8161Z" fill="white"/>
<path id="Vector_3" d="M85.4892 28.6907C84.2945 28.383 83.2213 27.9316 82.2696 27.3162V23.6032C82.9986 24.1776 83.9502 24.6289 85.1652 24.9982C86.3801 25.3674 87.5546 25.5521 88.6886 25.5521C89.215 25.5521 89.6199 25.4905 89.8832 25.3469C90.1464 25.2033 90.2882 25.0392 90.2882 24.8341C90.2882 24.6084 90.2072 24.4238 90.0655 24.2802C89.9237 24.1365 89.6402 24.0135 89.215 23.8904L86.5623 23.2956C85.0437 22.9468 83.9705 22.434 83.3225 21.8185C82.6746 21.2031 82.3708 20.3621 82.3708 19.3364C82.3708 18.4748 82.6543 17.7158 83.201 17.0799C83.768 16.4439 84.5577 15.9516 85.5905 15.6028C86.6231 15.2542 87.8178 15.0696 89.215 15.0696C90.4502 15.0696 91.5841 15.1927 92.6168 15.4799C93.6494 15.7464 94.4999 16.0952 95.1682 16.5055V20.0134C94.4797 19.6031 93.6698 19.2748 92.7788 19.0287C91.8676 18.7825 90.9362 18.6594 89.9844 18.6594C88.6074 18.6594 87.9191 18.9056 87.9191 19.3774C87.9191 19.6031 88.0203 19.7672 88.2431 19.8903C88.4658 20.0134 88.8504 20.1159 89.4174 20.239L91.6246 20.6493C93.0623 20.8954 94.1354 21.3467 94.8442 21.9826C95.5529 22.6186 95.8972 23.5416 95.8972 24.793C95.8972 26.147 95.3099 27.2341 94.1354 28.0137C92.9611 28.8138 91.3006 29.2034 89.1542 29.2034C87.8988 29.1624 86.6838 28.9983 85.4892 28.6907Z" fill="white"/>
<path id="Vector_4" d="M101.366 28.2193C100.111 27.5834 99.139 26.7424 98.5113 25.6757C97.8633 24.6089 97.5595 23.3986 97.5595 22.0447C97.5595 20.7114 97.8835 19.501 98.5518 18.4549C99.22 17.3881 100.192 16.5675 101.468 15.9522C102.743 15.3573 104.282 15.0496 106.064 15.0496C108.271 15.0496 110.094 15.5214 111.552 16.4649V20.5472C111.045 20.1985 110.438 19.8908 109.749 19.6856C109.061 19.46 108.332 19.3574 107.563 19.3574C106.186 19.3574 105.133 19.6036 104.343 20.1164C103.573 20.6293 103.189 21.2858 103.189 22.1062C103.189 22.9063 103.553 23.5628 104.323 24.0756C105.072 24.5884 106.165 24.8551 107.583 24.8551C108.312 24.8551 109.041 24.7525 109.749 24.5268C110.458 24.3012 111.086 24.0551 111.592 23.7269V27.686C109.972 28.6707 108.089 29.163 105.963 29.163C104.161 29.163 102.642 28.8348 101.366 28.2193Z" fill="white"/>
<path id="Vector_5" d="M117.325 28.2193C116.049 27.5834 115.077 26.7424 114.409 25.6551C113.741 24.5679 113.396 23.3576 113.396 22.0036C113.396 20.6703 113.741 19.46 114.409 18.4138C115.077 17.3676 116.049 16.547 117.304 15.9522C118.56 15.3573 120.078 15.0496 121.822 15.0496C123.563 15.0496 125.082 15.3368 126.338 15.9522C127.593 16.547 128.565 17.3676 129.233 18.4138C129.901 19.46 130.225 20.6498 130.225 22.0036C130.225 23.3371 129.901 24.5679 129.233 25.6551C128.565 26.7424 127.613 27.6039 126.338 28.2193C125.062 28.8348 123.563 29.163 121.822 29.163C120.099 29.163 118.6 28.8348 117.325 28.2193ZM124.029 24.2601C124.556 23.7269 124.839 22.9884 124.839 22.1062C124.839 21.2037 124.576 20.5062 124.029 19.9728C123.482 19.4394 122.753 19.1728 121.842 19.1728C120.891 19.1728 120.159 19.4394 119.613 19.9728C119.086 20.5062 118.803 21.2037 118.803 22.1062C118.803 23.0089 119.066 23.7269 119.613 24.2601C120.159 24.814 120.891 25.0807 121.842 25.0807C122.753 25.0602 123.503 24.7935 124.029 24.2601Z" fill="white"/>
<path id="Vector_6" d="M143.772 15.8692V20.69C143.205 20.3207 142.476 20.1361 141.585 20.1361C140.411 20.1361 139.499 20.5054 138.872 21.2233C138.243 21.9413 137.919 23.0696 137.919 24.5875V28.6904H132.513V15.6435H137.819V19.8079C138.102 18.2898 138.588 17.1616 139.236 16.4436C139.884 15.7256 140.735 15.3359 141.767 15.3359C142.536 15.3359 143.205 15.5206 143.772 15.8692Z" fill="white"/>
<path id="Vector_7" d="M162 12.6074V28.7106H156.594V25.7772C156.127 26.885 155.439 27.7261 154.507 28.3003C153.575 28.8748 152.42 29.162 151.043 29.162C149.828 29.162 148.755 28.8542 147.843 28.2593C146.933 27.6645 146.225 26.8234 145.739 25.7772C145.253 24.7105 145.01 23.5207 145.01 22.2079C144.989 20.8334 145.253 19.6026 145.799 18.5154C146.325 17.4282 147.095 16.5871 148.067 15.9717C149.039 15.3562 150.152 15.0485 151.407 15.0485C153.98 15.0485 155.703 16.1768 156.594 18.4538V12.6074H162ZM155.784 24.1566C156.33 23.6233 156.613 22.9052 156.613 22.0438C156.613 21.2026 156.351 20.5257 155.803 20.0129C155.257 19.5001 154.528 19.2334 153.615 19.2334C152.703 19.2334 151.974 19.5001 151.428 20.0334C150.881 20.5667 150.618 21.2437 150.618 22.1053C150.618 22.9668 150.881 23.6438 151.428 24.1771C151.974 24.7105 152.684 24.9772 153.594 24.9772C154.507 24.9772 155.236 24.7105 155.784 24.1566Z" fill="white"/>
<path id="Vector_8" d="M77.0656 16.4238C78.6186 16.4238 79.8802 15.2757 79.8802 13.8596C79.8802 12.4434 78.6186 11.2954 77.0656 11.2954C75.5104 11.2954 74.251 12.4434 74.251 13.8596C74.251 15.2757 75.5104 16.4238 77.0656 16.4238Z" fill="white"/>
<path id="Vector_9" d="M79.8802 18.1868C78.159 18.9457 76.0126 18.9662 74.251 18.1868V28.7103H79.8802V18.1868Z" fill="white"/>
</g>
</g>
<defs>
<clipPath id="clip0_1_119">
<rect width="162" height="45" fill="white"/>
</clipPath>
</defs>
</svg>
